ffmpeg version N-55863-g9f38fac053-static https://johnvansickle.com/ffmpeg/  Copyright (c) 2000-2021 the FFmpeg developers
  built with gcc 8 (Debian 8.3.0-6)
  configuration: --enable-gpl --enable-version3 --enable-static --disable-debug --disable-ffplay --disable-indev=sndio --disable-outdev=sndio --cc=gcc --enable-fontconfig --enable-frei0r --enable-gnutls --enable-gmp --enable-libgme --enable-gray --enable-libaom --enable-libfribidi --enable-libass --enable-libvmaf --enable-libfreetype --enable-libmp3lame --enable-libopencore-amrnb --enable-libopencore-amrwb --enable-libopenjpeg --enable-librubberband --enable-libsoxr --enable-libspeex --enable-libsrt --enable-libvorbis --enable-libopus --enable-libtheora --enable-libvidstab --enable-libvo-amrwbenc --enable-libvpx --enable-libwebp --enable-libx264 --enable-libx265 --enable-libxml2 --enable-libdav1d --enable-libxvid --enable-libzvbi --enable-libzimg
  libavutil      56. 64.100 / 56. 64.100
  libavcodec     58.119.100 / 58.119.100
  libavformat    58. 65.101 / 58. 65.101
  libavdevice    58. 11.103 / 58. 11.103
  libavfilter     7.100.100 /  7.100.100
  libswscale      5.  8.100 /  5.  8.100
  libswresample   3.  8.100 /  3.  8.100
  libpostproc    55.  8.100 / 55.  8.100
Input #0, mov,mp4,m4a,3gp,3g2,mj2, from '/home/yiaapc5/public_html/f_data/data_userfiles/user_uploads/1525927209/v/1614657305.mp4':
  Metadata:
    major_brand     : isom
    minor_version   : 512
    compatible_brands: isomiso2avc1mp41
    encoder         : Lavf58.54.100
  Duration: 00:02:31.23, start: 0.000000, bitrate: 2391 kb/s
    Stream #0:0(und): Video: h264 (Main) (avc1 / 0x31637661), yuv420p(tv), 726x404 [SAR 1:1 DAR 363:202], 2273 kb/s, 22.23 fps, 100 tbr, 90k tbn, 60 tbc (default)
    Metadata:
      handler_name    : VideoHandler
      vendor_id       : [0][0][0][0]
    Stream #0:1(und): Audio: aac (LC) (mp4a / 0x6134706D), 44100 Hz, stereo, fltp, 113 kb/s (default)
    Metadata:
      handler_name    : SoundHandler
      vendor_id       : [0][0][0][0]
Codec AVOption rc_eq (Set rate control equation. When computing the expression, besides the standard functions defined in the section 'Expression Evaluation', the following functions are available: bits2qp(bits), qp2bits(qp). Also the following constants are available: iTex pTex tex mv fCode iCount mcVar var isI isP isB avgQP qComp avgIITex avgPITex avgPPTex avgBPTex avgTex.) specified for output file #0 (/home/yiaapc5/public_html/f_data/data_userfiles/user_media/1525927209/v/726135eb957b10d61420171e1c83456a.mob.nomob.mp4) has not been used for any stream. The most likely reason is either wrong type (e.g. a video option with no video streams) or that it is a private option of some encoder which was not actually used for any stream.
Stream mapping:
  Stream #0:0 -> #0:0 (h264 (native) -> h264 (libx264))
  Stream #0:1 -> #0:1 (aac (native) -> aac (native))
Press [q] to stop, [?] for help
[libx264 @ 0x5836500] Application has requested 32 threads. Using a thread count greater than 16 is not recommended.
[libx264 @ 0x5836500] using SAR=4063/3990
[libx264 @ 0x5836500] frame MB size (30x17) > level limit (396)
[libx264 @ 0x5836500] VBV bitrate (10000) > level limit (768)
[libx264 @ 0x5836500] VBV buffer (10000) > level limit (2000)
[libx264 @ 0x5836500] MB rate (15300) > level limit (11880)
[libx264 @ 0x5836500] using cpu capabilities: MMX2 SSE2Fast SSSE3 SSE4.2 AVX
[libx264 @ 0x5836500] profile Constrained Baseline, level 1.3, 4:2:0, 8-bit
[libx264 @ 0x5836500] 264 - core 161 r3040 35417dc - H.264/MPEG-4 AVC codec - Copyleft 2003-2021 - http://www.videolan.org/x264.html - options: cabac=0 ref=1 deblock=1:0:0 analyse=0x1:0 me=hex subme=1 psy=1 psy_rd=1.00:0.00 mixed_ref=0 me_range=16 chroma_me=1 trellis=0 8x8dct=0 cqm=0 deadzone=21,11 fast_pskip=1 chroma_qp_offset=0 threads=32 lookahead_threads=2 sliced_threads=0 nr=0 decimate=1 interlaced=0 bluray_compat=0 constrained_intra=0 bframes=0 weightp=0 keyint=300 keyint_min=25 scenecut=40 intra_refresh=0 rc_lookahead=30 rc=abr mbtree=1 bitrate=1000 ratetol=1.0 qcomp=0.60 qpmin=10 qpmax=51 qpstep=4 vbv_maxrate=10000 vbv_bufsize=10000 nal_hrd=none filler=0 ip_ratio=1.41 aq=1:1.00
Output #0, mp4, to '/home/yiaapc5/public_html/f_data/data_userfiles/user_media/1525927209/v/726135eb957b10d61420171e1c83456a.mob.nomob.mp4':
  Metadata:
    major_brand     : isom
    minor_version   : 512
    compatible_brands: isomiso2avc1mp41
    encoder         : Lavf58.65.101
    Stream #0:0(und): Video: h264 (avc1 / 0x31637661), yuv420p(tv, progressive), 480x272 [SAR 4063:3990 DAR 239:133], q=2-31, 1000 kb/s, 30 fps, 15360 tbn (default)
    Metadata:
      handler_name    : VideoHandler
      vendor_id       : [0][0][0][0]
      encoder         : Lavc58.119.100 libx264
    Side data:
      cpb: bitrate max/min/avg: 10000000/0/1000000 buffer size: 10000000 vbv_delay: N/A
    Stream #0:1(und): Audio: aac (LC) (mp4a / 0x6134706D), 44100 Hz, stereo, fltp, 113 kb/s (default)
    Metadata:
      handler_name    : SoundHandler
      vendor_id       : [0][0][0][0]
      encoder         : Lavc58.119.100 aac
frame=    3 fps=0.0 q=0.0 size=       0kB time=00:00:01.02 bitrate=   0.4kbits/s dup=2 drop=0 speed=73.3x    frame=  381 fps=0.0 q=24.0 size=    1536kB time=00:00:13.23 bitrate= 950.7kbits/s dup=114 drop=0 speed=25.7x    frame=  758 fps=743 q=24.0 size=    3072kB time=00:00:25.91 bitrate= 971.2kbits/s dup=225 drop=0 speed=25.4x    frame= 1133 fps=745 q=24.0 size=    4608kB time=00:00:38.31 bitrate= 985.3kbits/s dup=324 drop=0 speed=25.2x    frame= 1468 fps=726 q=22.0 size=    5888kB time=00:00:49.87 bitrate= 967.1kbits/s dup=414 drop=0 speed=24.7x    frame= 1828 fps=725 q=25.0 size=    8192kB time=00:01:01.44 bitrate=1092.3kbits/s dup=504 drop=0 speed=24.4x    frame= 2189 fps=725 q=27.0 size=   10240kB time=00:01:13.53 bitrate=1140.7kbits/s dup=584 drop=0 speed=24.3x    frame= 2558 fps=725 q=25.0 size=   11264kB time=00:01:25.86 bitrate=1074.6kbits/s dup=691 drop=0 speed=24.3x    frame= 2916 fps=724 q=24.0 size=   12800kB time=00:01:37.73 bitrate=1072.9kbits/s dup=772 drop=0 speed=24.3x    frame= 3286 fps=726 q=24.0 size=   14592kB time=00:01:50.06 bitrate=1086.1kbits/s dup=860 drop=0 speed=24.3x    frame= 3618 fps=720 q=25.0 size=   16384kB time=00:02:01.13 bitrate=1108.0kbits/s dup=933 drop=0 speed=24.1x    More than 1000 frames duplicated
frame= 4003 fps=724 q=25.0 size=   17920kB time=00:02:13.95 bitrate=1095.9kbits/s dup=1037 drop=0 speed=24.2x    frame= 4345 fps=721 q=25.0 size=   19456kB time=00:02:25.56 bitrate=1094.9kbits/s dup=1124 drop=0 speed=24.1x    frame= 4536 fps=716 q=-1.0 Lsize=   20772kB time=00:02:31.16 bitrate=1125.7kbits/s dup=1175 drop=0 speed=23.9x    
video:18562kB audio:2083kB subtitle:0kB other streams:0kB global headers:0kB muxing overhead: 0.612029%
[libx264 @ 0x5836500] frame I:23    Avg QP:17.21  size: 20469
[libx264 @ 0x5836500] frame P:4513  Avg QP:19.55  size:  4107
[libx264 @ 0x5836500] mb I  I16..4:  9.6%  0.0% 90.4%
[libx264 @ 0x5836500] mb P  I16..4:  6.4%  0.0%  0.0%  P16..4: 57.9%  0.0%  0.0%  0.0%  0.0%    skip:35.7%
[libx264 @ 0x5836500] final ratefactor: 18.24
[libx264 @ 0x5836500] coded y,uvDC,uvAC intra: 55.2% 54.1% 29.0% inter: 29.2% 21.9% 6.8%
[libx264 @ 0x5836500] i16 v,h,dc,p: 16% 57% 13% 13%
[libx264 @ 0x5836500] i4 v,h,dc,ddl,ddr,vr,hd,vl,hu: 16% 42%  9%  6%  5%  4%  7%  3%  9%
[libx264 @ 0x5836500] i8c dc,h,v,p: 38% 42% 12%  8%
[libx264 @ 0x5836500] kb/s:1005.66
[aac @ 0x587e100] Qavg: 739.447
